<svg xmlns="http://www.w3.org/2000/svg" width="480" height="480" viewBox="0 0 480 480">
  <defs>
    <g id="pine">
      <polygon points="0,-32 -16,-2 16,-2" fill="#2a4220"/>
      <polygon points="0,-18 -22,16 22,16" fill="#1f3018"/>
      <rect x="-4" y="14" width="8" height="11" fill="#4a3018"/>
    </g>
    <g id="mushroom">
      <path d="M-15,-2 Q0,-18 15,-2 Z" fill="#a0301c"/>
      <ellipse cx="-6" cy="-7" rx="3" ry="2" fill="#fff5e0"/>
      <ellipse cx="5" cy="-5" rx="2.5" ry="1.7" fill="#fff5e0"/>
      <rect x="-5" y="-2" width="10" height="14" fill="#f4e4c0"/>
    </g>
    <g id="leaf">
      <path d="M0,0 Q12,-12 18,0 Q12,8 0,0 Z" fill="#5a8030"/>
      <line x1="0" y1="0" x2="18" y2="0" stroke="#3a5018" stroke-width="1"/>
    </g>
  </defs>
  <g opacity="0.22">
    <use href="#pine" transform="translate(70 110) scale(1.1)"/>
    <use href="#pine" transform="translate(380 200) scale(0.85)"/>
    <use href="#pine" transform="translate(190 360) scale(1)"/>
    <use href="#pine" transform="translate(430 400) scale(0.7)"/>
    <use href="#pine" transform="translate(260 60) scale(0.6)"/>
    <use href="#mushroom" transform="translate(280 130) scale(1.1) rotate(-6)"/>
    <use href="#mushroom" transform="translate(60 410) scale(0.9) rotate(8)"/>
    <use href="#mushroom" transform="translate(330 300) scale(1) rotate(-10)"/>
    <use href="#leaf" transform="translate(220 60) rotate(15)"/>
    <use href="#leaf" transform="translate(420 90) rotate(-30)"/>
    <use href="#leaf" transform="translate(50 250) rotate(45)"/>
    <use href="#leaf" transform="translate(260 230) rotate(-12)"/>
    <use href="#leaf" transform="translate(140 200) rotate(60)"/>
  </g>
</svg>
